<svg width="196" height="179" viewBox="0 0 196 179" fill="none" xmlns="http://www.w3.org/2000/svg">
<path fill-rule="evenodd" clip-rule="evenodd" d="M39.7139 32.9894C40.1608 30.9099 39.8987 29.1912 39.4806 27.1608C39.1449 25.532 39.909 23.7681 40.5586 22.2685L40.6516 22.0536C42.3364 18.1527 45.643 15.1116 49.0644 12.7252C55.2493 8.32474 62.9396 5.86279 70.3941 4.74612C70.6022 4.73067 70.8108 4.71298 71.0194 4.6953C72.4371 4.57542 73.854 4.43463 75.2693 4.27742C77.3511 4.05837 79.429 3.79713 81.4985 3.49287C84.8986 2.9631 88.2767 2.35097 91.6388 1.62299C93.1793 1.2832 94.71 0.895526 96.2293 0.468907C96.265 0.449995 96.3022 0.435951 96.3411 0.424543C82.493 -0.866921 68.0436 0.815378 54.8115 5.09887C51.6313 7.65788 48.422 10.0065 45.0912 12.3769C40.8062 15.2645 36.3455 17.9497 31.8501 20.495C30.3564 21.3302 28.8412 22.1193 27.3278 22.9075C23.7886 24.7507 20.2595 26.5887 17.0395 28.9983C13.6191 31.5577 10.5132 34.5359 7.81129 37.8452C7.15092 38.6528 6.51679 39.4812 5.90706 40.3279C2.68346 44.8018 -4.24629 55.8733 3.61945 59.6376C6.17903 60.8627 9.29665 60.7476 12.001 60.0969C15.6704 59.1108 19.1492 57.6339 22.3405 55.5633C30.2338 50.443 37.676 42.4518 39.7112 32.9912L39.7139 32.9894ZM80.5217 11.6664C77.3723 11.5867 74.2124 11.9615 71.1744 12.7987C68.0589 13.6565 65.0766 15.0294 62.4913 16.9765C55.4306 22.3047 55.7472 31.2515 63.6618 35.6401C68.368 38.2301 73.8502 38.7332 79.1126 38.1522C80.431 37.9821 81.7386 37.7179 83.0169 37.3607C86.5602 36.3704 90.0028 34.7232 92.7485 32.2449C94.8332 30.3988 96.4522 27.9752 97.0415 25.2344C97.0847 25.0463 97.1104 24.8526 97.1201 24.6584C97.2458 23.8466 97.2475 23.0192 97.1268 22.2044C96.9683 21.0116 96.5647 19.8598 95.9455 18.8282C94.5277 16.532 92.3369 14.8364 89.8945 13.7293C86.9452 12.4131 83.7384 11.7951 80.519 11.6682L80.5217 11.6664ZM152.16 99.4135C153.237 99.4303 154.317 99.3257 155.371 99.0986C158.421 98.4641 161.141 96.7535 163.101 94.3454C164.953 91.95 166.009 89.0007 166.324 86.0029C166.358 85.753 166.378 85.5008 166.381 85.2502C166.471 84.139 166.461 83.0191 166.35 81.9086C166.209 80.1979 165.858 78.5093 165.329 76.8761C164.237 73.5182 162.465 70.4205 160.176 67.7342C157.824 65.1934 155.049 63.0395 151.82 61.7419C149.139 60.6264 146.083 60.1578 143.209 60.6328C140.171 61.0895 137.361 62.6042 135.282 64.857C131.481 69.1 130.553 74.9703 131.597 80.4403C132.523 85.3428 135.013 89.5522 138.435 93.1323C142.032 96.8315 146.96 99.2888 152.16 99.4113L152.16 99.4135ZM106.371 144.472C106.82 145.778 107.084 147.144 107.149 148.523C107.215 149.445 107.181 150.375 107.048 151.292C107.033 151.504 107.007 151.713 106.969 151.923C106.531 154.581 105.362 157.092 103.629 159.152C101.798 161.316 99.3768 162.93 96.6963 163.846C95.813 164.15 94.8991 164.368 93.9737 164.496C90.0622 164.956 85.8658 163.952 82.738 161.516C76.1583 156.443 74.6953 146.829 79.7352 140.167C81.4482 137.913 83.7673 136.188 86.4071 135.166C88.8297 134.222 91.4882 133.902 94.0624 134.279C96.8655 134.704 99.5209 135.859 101.707 137.671C103.845 139.48 105.467 141.82 106.371 144.472ZM23.6859 107.753C26.1901 106.395 28.2566 104.267 29.7317 101.848C30.1359 101.181 30.5046 100.493 30.8399 99.786C31.7098 97.9074 32.2918 95.8845 32.5204 93.8256C32.5505 93.6074 32.5672 93.3868 32.5742 93.1691C32.6588 92.2276 32.6568 91.2797 32.5655 90.3411C32.4628 88.9923 32.1702 87.66 31.6975 86.392C30.8188 84.1009 29.3767 82.0286 27.3703 80.5898C25.4504 79.2727 23.1809 78.6395 20.8561 78.8239C18.6351 79.0086 16.4733 79.7988 14.6394 81.0608C12.5084 82.6011 10.7751 84.6352 9.51287 86.9364C6.13575 93.1047 5.7609 102.392 11.7893 107.144C14.5537 109.229 18.0022 109.747 21.2945 108.767C22.1249 108.513 22.9269 108.174 23.6877 107.756L23.6859 107.753ZM195.61 101.261C195.614 101.387 195.619 101.513 195.624 101.64L195.623 101.644C195.653 103.407 195.669 105.173 195.58 106.932L195.548 107.109C195.537 107.155 195.527 107.202 195.517 107.248L195.502 107.318L195.496 107.342L195.486 107.39C195.459 107.523 195.429 107.658 195.397 107.798L195.391 107.827C195.344 108.022 195.293 108.215 195.238 108.406C195.229 108.443 195.218 108.478 195.206 108.515C195.198 108.545 195.189 108.576 195.18 108.606L195.179 108.609C195.168 108.645 195.157 108.681 195.147 108.717C195.121 108.807 195.093 108.898 195.066 108.988L195.066 108.988C195.061 109.003 195.056 109.019 195.05 109.036C194.932 109.347 194.804 109.658 194.671 109.961C194.138 110.598 193.485 110.87 192.662 110.696C191.899 110.537 191.18 110.186 190.585 109.685C190.502 109.614 190.421 109.541 190.339 109.467L190.339 109.467L190.339 109.467C190.153 109.299 189.966 109.13 189.754 108.998C187.774 107.759 184.883 108.981 183.205 110.174C181.375 111.476 179.904 113.234 178.611 115.053C175.859 118.923 174.199 123.455 173.067 128.037C172.205 131.532 171.976 134.906 171.742 138.368C171.651 139.709 171.559 141.063 171.429 142.443C170.317 154.267 159.453 168.384 146.5 166.783C142.94 166.231 139.709 164.698 137.119 162.185C127.412 152.821 128.98 136.127 137.111 126.342C141.201 121.541 147.008 117.98 153.356 117.932C154.199 117.927 155.053 117.982 155.912 118.105C156.282 118.157 156.65 118.222 157.018 118.286L157.019 118.286C157.664 118.399 158.309 118.512 158.961 118.561C165.454 119.048 171.989 115.139 175.569 109.941C178.574 105.58 180.021 100.479 180.411 95.2494C180.64 92.1648 180.221 89.1277 179.802 86.0895C179.3 82.4549 178.798 78.8189 179.405 75.0986L179.412 75.0629C179.466 74.7268 179.53 74.3927 179.606 74.0628L179.609 74.05C179.626 73.9834 179.642 73.9149 179.661 73.8468C179.736 73.5629 179.821 73.2831 179.913 73.0046L179.916 72.9914C179.919 72.9817 179.922 72.9718 179.925 72.9619L179.931 72.9438C179.937 72.9235 179.944 72.9029 179.951 72.8824C180.047 72.6025 180.144 72.3248 180.242 72.0474C180.269 71.974 180.299 71.9009 180.328 71.8278C180.401 71.6426 180.48 71.4565 180.566 71.276C180.601 71.197 180.638 71.1206 180.677 71.0447C180.786 70.8246 180.912 70.6122 181.072 70.3805C181.21 70.1865 181.36 69.9991 181.518 69.8225C181.555 69.7854 181.59 69.7478 181.622 69.7076C181.728 69.5792 181.842 69.4592 181.964 69.3474C181.979 69.3336 181.993 69.3198 182.008 69.3062C182.016 69.2987 182.025 69.2912 182.033 69.2838C182.332 69.0379 182.669 68.8452 183.028 68.7094C183.04 68.707 183.052 68.7023 183.064 68.6976C183.849 68.4956 184.67 68.584 185.411 68.9414C185.72 69.1377 186.018 69.3528 186.301 69.5861C186.309 69.5922 186.317 69.5987 186.324 69.6053C186.332 69.6118 186.339 69.6183 186.347 69.6244C186.496 69.748 186.643 69.8761 186.786 70.0078C186.8 70.0196 186.811 70.031 186.825 70.0427C186.954 70.1627 187.081 70.2872 187.204 70.413C187.239 70.4378 187.268 70.4661 187.302 70.5091C187.316 70.5235 187.329 70.5378 187.343 70.552L187.379 70.5922C187.532 70.7443 187.676 70.9062 187.809 71.0733L187.848 71.1287C187.993 71.3324 188.135 71.5425 188.27 71.7558C188.279 71.7713 188.288 71.7844 188.297 71.7976C188.798 72.5773 189.26 73.38 189.695 74.2286C190.221 75.1903 190.667 76.1975 191.029 77.2312L191.07 77.3493C191.334 78.0862 191.581 78.8293 191.805 79.5799C191.817 79.6189 191.829 79.6581 191.841 79.6973L191.86 79.7603L191.876 79.814C191.971 80.1193 192.064 80.4242 192.156 80.7313C192.164 80.7593 192.172 80.7873 192.179 80.8153L192.197 80.88L192.218 80.9582C192.225 80.982 192.232 81.0058 192.238 81.0297C192.344 81.4153 192.45 81.801 192.555 82.1889C194.179 88.264 195.262 94.6055 195.597 100.881C195.601 101.008 195.606 101.134 195.61 101.261ZM111.577 74.7564C112.295 79.7947 113.006 84.7848 111.015 90.1797L111.013 90.1655C107.472 99.7623 98.3477 106.844 88.2212 108.126C86.6259 108.328 85.0718 108.463 83.5442 108.595C79.0337 108.986 74.7534 109.357 70.3219 111.38C65.0404 113.793 60.4303 117.548 57.0873 122.3C53.3656 127.59 51.0986 133.95 51.03 140.441C50.9941 143.947 51.9157 147.214 52.8375 150.482C53.7121 153.582 54.5868 156.683 54.644 159.988C54.7203 164.283 53.6149 168.669 51.0722 172.132C47.0395 177.624 39.1806 179.652 32.6564 178.44C29.0292 177.734 25.7375 176.027 22.8121 173.811C13.7289 166.832 8.43314 153.547 12.9728 142.549C15.1354 137.305 19.7985 133.384 25.2663 132.176C26.2324 131.963 27.2247 131.835 28.2306 131.798C28.6146 131.784 28.9992 131.784 29.3837 131.783C30.0553 131.782 30.7268 131.781 31.3942 131.71C33.6667 131.47 35.9279 130.499 37.9674 129.505C43.3548 126.876 47.8377 122.713 51.2158 117.792C56.889 109.527 60.1644 97.9899 57.1245 88.1367C54.646 80.0954 57.263 70.6591 62.479 64.2879C67.1514 58.6531 74.1095 54.9293 81.3918 54.1528C81.4097 54.156 81.4284 54.1547 81.4527 54.1476C82.9452 53.9974 84.4272 54.0136 85.9093 54.0298C87.3913 54.046 88.8733 54.0623 90.3658 53.9121C97.3039 53.214 104.441 50.5461 109.949 46.2379C110.739 45.6175 111.502 44.962 112.227 44.2653C116.494 40.1757 120.324 33.2246 118.63 27.1254C118.4 26.296 118.093 25.4143 117.778 24.5082C116.26 20.1381 114.543 15.1992 120.209 12.8057C122.34 11.9017 124.714 11.703 127.005 11.9229L127.016 11.9237C127.053 11.9262 127.088 11.9286 127.125 11.9331C127.155 11.9342 127.187 11.9377 127.217 11.9409L127.223 11.9415C127.232 11.9424 127.241 11.943 127.25 11.9436C127.268 11.9449 127.287 11.9461 127.304 11.9494C127.328 11.9489 127.353 11.9511 127.375 11.9552C127.395 11.9566 127.416 11.958 127.436 11.9616C127.455 11.9604 127.473 11.9636 127.491 11.9668C127.507 11.9652 127.525 11.9684 127.54 11.9712C127.557 11.9696 127.573 11.9724 127.588 11.9752C127.604 11.9758 127.62 11.9786 127.636 11.9815C127.652 11.9821 127.665 11.9845 127.681 11.9873C127.697 11.9879 127.712 11.9907 127.726 11.9931C127.74 11.9933 127.755 11.9961 127.769 11.9986C127.785 11.9992 127.798 12.0016 127.814 12.0044C127.83 12.005 127.843 12.0074 127.859 12.0102C127.875 12.0108 127.891 12.0136 127.906 12.0165C127.922 12.0171 127.94 12.0203 127.956 12.0231C127.963 12.0235 127.971 12.0243 127.979 12.0254C127.989 12.0268 127.999 12.0287 128.01 12.0306C128.03 12.032 128.048 12.0352 128.068 12.0388C128.091 12.0406 128.113 12.0446 128.136 12.0487C128.161 12.0509 128.188 12.0557 128.212 12.0602C128.23 12.0621 128.247 12.0645 128.263 12.0673C128.277 12.0695 128.29 12.072 128.304 12.0745L128.31 12.0752C128.346 12.0795 128.381 12.0837 128.417 12.0902C128.469 12.0928 128.519 12.0972 128.571 12.1064C128.616 12.1139 128.662 12.1211 128.707 12.1283C128.799 12.1427 128.89 12.1572 128.981 12.1736C132.456 12.7732 135.823 13.9503 139.016 15.4235C140.042 15.9037 141.055 16.4139 142.051 16.9556C144.604 18.3339 147.05 19.9212 149.35 21.6851C152.222 23.8656 154.924 26.3728 157.088 29.267C158.003 30.4488 158.786 31.736 159.401 33.0965C159.771 33.8849 160.048 34.7164 160.219 35.5703C160.274 35.7509 160.315 35.9379 160.341 36.1248C160.708 38.3075 159.971 40.4774 158.303 41.9401C155.885 43.8966 152.616 44.3923 149.582 44.2829C146.875 44.186 144.333 43.6673 141.721 42.9884C133.44 40.8322 124.33 42.6228 118.128 48.7885C114.23 52.668 111.849 57.8173 111.074 63.2379C110.504 67.2287 111.042 71.0059 111.577 74.7564Z" fill="#191919"/>
</svg>
