<svg width="694" height="106" viewBox="0 0 694 106" fill="none" xmlns="http://www.w3.org/2000/svg">
<path d="M142.999 37.7115H173.015L170.127 40.0066C166.281 43.0714 164.034 47.731 164.034 52.668V80.0433H175.675V37.7115H196.718V26H142.999V37.7115Z" fill="#191919"/>
<path d="M253.111 47.1694H221.399V26H209.841V80.0433H221.399V58.8808H253.111V80.0433H264.676V26H253.111V47.1694Z" fill="#191919"/>
<path d="M328.871 27.5808C327.203 26.5823 325.349 26.0762 323.316 26.0762H280.715V80.0431H292.28V62.3269L307.608 62.2922L322.42 80.0431H334.358V76.0631L322.73 62.2506H323.316C325.356 62.2506 327.21 61.7514 328.871 60.7459C330.539 59.7475 331.883 58.3953 332.903 56.6896C333.923 54.9908 334.433 53.1394 334.433 51.1355V37.1774C334.433 35.1735 333.923 33.3222 332.903 31.6233C331.883 29.9245 330.539 28.5724 328.871 27.567V27.5808ZM322.716 50.5461H292.273V37.7113H322.716V50.5461Z" fill="#191919"/>
<path d="M349.879 80.0433H399.49V68.3318H361.589V58.8808H392.102V47.1694H361.589V37.7115H399.49V26H349.879V80.0433Z" fill="#191919"/>
<path d="M462.645 27.5047C460.977 26.5062 459.123 26 457.089 26H425.529C423.538 26 421.697 26.4992 420.009 27.5047C418.32 28.5032 416.976 29.8414 415.984 31.5194C414.991 33.1974 414.488 35.0627 414.488 37.1082V80.0433H426.053V62.6321H456.49V80.0433H468.207V37.1082C468.207 35.0557 467.697 33.1905 466.677 31.5194C465.657 29.8414 464.313 28.5032 462.645 27.5047ZM456.49 50.9206H426.053V37.7115H456.49V50.9206Z" fill="#191919"/>
<path d="M481.481 37.7115H502.524V80.0433H514.165V37.7115H535.2V26H481.481V37.7115Z" fill="#191919"/>
<path d="M596.418 27.5808C594.75 26.5823 592.896 26.0762 590.863 26.0762H548.261V80.0431H559.826V62.3269L575.155 62.2922L589.967 80.0431H601.904V76.0631L590.277 62.2506H590.863C592.903 62.2506 594.757 61.7514 596.418 60.7459C598.086 59.7475 599.43 58.3953 600.45 56.6896C601.47 54.9908 601.98 53.1394 601.98 51.1355V37.1774C601.98 35.1735 601.47 33.3222 600.45 31.6233C599.43 29.9245 598.086 28.5724 596.418 27.567V27.5808ZM590.263 50.5461H559.826V37.7113H590.263V50.5461Z" fill="#191919"/>
<path d="M626.82 26H615.406V80.0433H626.82V26Z" fill="#191919"/>
<path d="M693.669 26H681.655L666.885 43.7925L659.124 53.0216L658.104 54.2489L639.95 76.0632V80.0433H651.963L666.733 62.3339L681.655 80.0433H693.669V75.9938L674.418 53.0216L693.669 29.9801V26Z" fill="#191919"/>
<path d="M639.95 26V29.9801L646.629 38.0096C649.675 41.6777 654.183 43.7925 658.931 43.7925H666.878L651.956 26.0069H639.943L639.95 26Z" fill="#191919"/>
<path fill-rule="evenodd" clip-rule="evenodd" d="M23.3504 19.3966C23.6131 18.1739 23.459 17.1634 23.2132 15.9696C23.0158 15.0119 23.4651 13.9748 23.847 13.0931L23.9017 12.9667C24.8923 10.6731 26.8364 8.88508 28.8481 7.48197C32.4846 4.89465 37.0063 3.44712 41.3892 2.79055C41.5116 2.78146 41.6343 2.77107 41.7569 2.76067C42.5905 2.69018 43.4236 2.60741 44.2557 2.51497C45.4797 2.38618 46.7014 2.23258 47.9182 2.05369C49.9174 1.7422 51.9036 1.38229 53.8804 0.954258C54.7861 0.754474 55.6862 0.526538 56.5794 0.275701C56.6004 0.264581 56.6223 0.256324 56.6452 0.249617C48.503 -0.509719 40.0072 0.479414 32.2273 2.99796C30.3574 4.50256 28.4705 5.88346 26.512 7.2772C23.9926 8.97498 21.3699 10.5538 18.7267 12.0503C17.8485 12.5414 16.9576 13.0054 16.0678 13.4688C13.9868 14.5526 11.9119 15.6332 10.0186 17.05C8.00755 18.5548 6.18137 20.3059 4.59276 22.2517C4.20449 22.7265 3.83164 23.2136 3.47314 23.7114C1.57778 26.3419 -2.49667 32.8515 2.12811 35.0648C3.63305 35.7851 5.4661 35.7175 7.05614 35.3348C9.21364 34.7551 11.259 33.8867 13.1354 32.6693C17.7764 29.6587 22.1522 24.9601 23.3488 19.3977L23.3504 19.3966ZM47.3438 6.85938C45.4921 6.81252 43.6342 7.03293 41.848 7.52518C40.0161 8.02953 38.2626 8.83673 36.7426 9.98157C32.5911 13.1144 32.7773 18.3747 37.4308 20.9551C40.1979 22.4779 43.4212 22.7737 46.5153 22.4321C47.2905 22.3321 48.0593 22.1768 48.8109 21.9668C50.8942 21.3845 52.9184 20.416 54.5328 18.9588C55.7585 17.8734 56.7104 16.4484 57.0569 14.8369C57.0823 14.7263 57.0974 14.6124 57.1031 14.4983C57.177 14.0209 57.178 13.5345 57.1071 13.0554C57.0139 12.354 56.7765 11.6768 56.4125 11.0703C55.5788 9.72022 54.2907 8.72323 52.8547 8.07229C51.1206 7.29844 49.2351 6.93507 47.3423 6.86046L47.3438 6.85938ZM89.4646 58.4516C90.0978 58.4615 90.733 58.4 91.3527 58.2665C93.1459 57.8934 94.7454 56.8876 95.8978 55.4717C96.9864 54.0633 97.6074 52.3292 97.7926 50.5666C97.8123 50.4197 97.8241 50.2714 97.8263 50.1241C97.8791 49.4708 97.8731 48.8123 97.8078 48.1593C97.7248 47.1535 97.5187 46.1607 97.2076 45.2004C96.5653 43.2261 95.5237 41.4047 94.1779 39.8253C92.7949 38.3314 91.1633 37.065 89.2645 36.3021C87.6882 35.6461 85.8913 35.3706 84.2019 35.6499C82.4153 35.9184 80.7635 36.809 79.5407 38.1336C77.3062 40.6283 76.7606 44.0799 77.3741 47.296C77.9189 50.1785 79.3826 52.6535 81.3947 54.7585C83.5095 56.9335 86.4074 58.3783 89.4648 58.4503L89.4646 58.4516ZM62.5422 84.9447C62.8067 85.7122 62.9615 86.5155 62.9997 87.3262C63.0389 87.8687 63.0189 88.4154 62.9406 88.9543C62.9317 89.0788 62.9162 89.202 62.894 89.3254C62.6364 90.8879 61.9492 92.3647 60.9301 93.5756C59.8538 94.8479 58.4301 95.7973 56.8541 96.3357C56.3347 96.5144 55.7974 96.6424 55.2533 96.7177C52.9535 96.9885 50.4861 96.3981 48.6471 94.9655C44.7785 91.9832 43.9183 86.3301 46.8816 82.4136C47.8888 81.088 49.2523 80.0736 50.8044 79.4726C52.2288 78.9178 53.7919 78.7296 55.3054 78.9512C56.9536 79.2013 58.5148 79.8802 59.8001 80.9458C61.0572 82.0091 62.011 83.3849 62.5422 84.9447ZM13.9264 63.3551C15.3988 62.5568 16.6138 61.3054 17.4812 59.8828C17.7188 59.4906 17.9356 59.0865 18.1328 58.6707C18.6442 57.5661 18.9864 56.3767 19.1208 55.1662C19.1385 55.0379 19.1484 54.9082 19.1525 54.7801C19.2022 54.2266 19.201 53.6693 19.1473 53.1174C19.0869 52.3244 18.9149 51.541 18.637 50.7955C18.1203 49.4484 17.2724 48.23 16.0927 47.384C14.9639 46.6096 13.6295 46.2373 12.2626 46.3457C10.9568 46.4543 9.6857 46.9189 8.60743 47.6609C7.35445 48.5666 6.33535 49.7625 5.5932 51.1155C3.60756 54.7423 3.38717 60.2031 6.93165 62.9967C8.55699 64.2226 10.5846 64.5276 12.5204 63.9512C13.0086 63.8021 13.4802 63.6026 13.9275 63.3567L13.9264 63.3551ZM115.015 59.6415C115.017 59.6812 115.018 59.721 115.02 59.7607L115.019 59.7633C115.037 60.7994 115.046 61.8381 114.994 62.8723L114.975 62.976C114.97 62.9978 114.966 63.0194 114.961 63.0409L114.957 63.0582C114.951 63.0861 114.945 63.1139 114.939 63.1416C114.923 63.2202 114.905 63.2995 114.887 63.3822L114.883 63.3985C114.855 63.5129 114.825 63.6267 114.793 63.7388C114.788 63.7609 114.781 63.7814 114.775 63.8032C114.763 63.8419 114.751 63.8817 114.74 63.9216C114.725 63.9745 114.708 64.0285 114.692 64.0811L114.692 64.0814L114.686 64.0978L114.683 64.1093C114.613 64.2919 114.538 64.4749 114.46 64.6532C114.146 65.0277 113.762 65.1875 113.279 65.0853C112.83 64.9921 112.407 64.7857 112.058 64.4908C112.039 64.4749 112.02 64.4589 112.002 64.4427C111.972 64.4163 111.942 64.3896 111.913 64.3628C111.803 64.2639 111.693 64.1649 111.569 64.0867C110.404 63.3588 108.705 64.0768 107.718 64.7784C106.642 65.5439 105.777 66.5779 105.017 67.6471C103.399 69.9223 102.423 72.5872 101.757 75.2811C101.251 77.3362 101.116 79.3197 100.978 81.3553L100.978 81.3556L100.978 81.3559C100.925 82.1442 100.871 82.9402 100.794 83.7512C100.141 90.7034 93.7526 99.0036 86.1371 98.0628C84.0438 97.7378 82.1441 96.8365 80.6211 95.3593C74.9137 89.8533 75.8359 80.038 80.6164 74.2847C83.0214 71.4615 86.4358 69.3682 90.1681 69.3397C90.6638 69.337 91.1654 69.3692 91.6707 69.4415C91.888 69.4723 92.1046 69.5102 92.3212 69.5481L92.3216 69.5482L92.3218 69.5482C92.701 69.6145 93.0802 69.6808 93.4635 69.7095C97.2814 69.996 101.124 67.6979 103.229 64.6417C104.995 62.0775 105.846 59.0782 106.075 56.0033C106.21 54.1897 105.964 52.404 105.717 50.6177V50.6177V50.6176C105.422 48.4806 105.127 46.3427 105.484 44.1553L105.488 44.1343C105.519 43.9367 105.558 43.7403 105.602 43.5463L105.604 43.5389L105.604 43.5383C105.614 43.4993 105.624 43.4592 105.635 43.4193C105.678 43.2524 105.728 43.0879 105.782 42.9241L105.784 42.9175C105.791 42.8963 105.797 42.8742 105.805 42.8523C105.862 42.6877 105.918 42.5244 105.976 42.3614C105.992 42.3184 106.009 42.2756 106.026 42.2329L106.027 42.2322C106.069 42.1233 106.116 42.0139 106.167 41.9077C106.187 41.8613 106.209 41.8164 106.232 41.7718C106.296 41.6424 106.37 41.5175 106.464 41.3812C106.545 41.2672 106.633 41.157 106.726 41.0532C106.748 41.0313 106.768 41.0092 106.787 40.9856C106.85 40.9101 106.917 40.8395 106.989 40.7738L107.009 40.7549C107.015 40.7487 107.022 40.7425 107.029 40.7364C107.205 40.5919 107.403 40.4785 107.614 40.3987C107.618 40.3979 107.622 40.3967 107.626 40.3952L107.635 40.3918C108.097 40.273 108.58 40.325 109.015 40.5351C109.197 40.6505 109.372 40.777 109.538 40.9142C109.543 40.9177 109.548 40.9216 109.552 40.9254C109.556 40.9293 109.561 40.9331 109.566 40.9367C109.653 41.0094 109.74 41.0847 109.823 41.1621C109.826 41.1641 109.828 41.166 109.83 41.168L109.835 41.1725L109.836 41.1734L109.847 41.1826C109.922 41.2532 109.997 41.3264 110.069 41.4004C110.09 41.4149 110.107 41.4316 110.127 41.4569C110.131 41.4609 110.135 41.4649 110.139 41.4689C110.142 41.4725 110.145 41.476 110.149 41.4796L110.172 41.5057C110.262 41.5951 110.347 41.6904 110.425 41.7886L110.448 41.8211C110.534 41.941 110.617 42.0645 110.696 42.1899C110.701 42.199 110.707 42.2067 110.712 42.2145C111.007 42.6729 111.278 43.1448 111.534 43.6438C111.843 44.2092 112.105 44.8014 112.319 45.4092L112.343 45.4786C112.498 45.9119 112.643 46.3488 112.775 46.7901C112.788 46.8359 112.803 46.882 112.817 46.9278C112.872 47.1073 112.927 47.2866 112.981 47.4671C112.998 47.5257 113.013 47.584 113.029 47.6426L113.031 47.65C113.093 47.8743 113.154 48.0986 113.216 48.3242C114.171 51.8961 114.807 55.6247 115.004 59.3146C115.006 59.3671 115.008 59.4196 115.01 59.4721C115.012 59.5286 115.013 59.5851 115.015 59.6415ZM65.6033 43.9541C66.0255 46.9164 66.4437 49.8505 65.2731 53.0225L65.2718 53.0141C63.1897 58.6567 57.825 62.8203 51.871 63.5741C50.933 63.6929 50.0193 63.7722 49.1211 63.8501C46.4691 64.0801 43.9524 64.2983 41.3468 65.4876C38.2415 66.9061 35.5309 69.1143 33.5653 71.9083C31.3771 75.0186 30.0442 78.7578 30.0039 82.5743C29.9827 84.6357 30.5246 86.5566 31.0666 88.4779C31.5808 90.3007 32.0951 92.1239 32.1288 94.0674C32.1736 96.5927 31.5237 99.1714 30.0287 101.207C27.6576 104.436 23.0368 105.629 19.2009 104.916C17.0682 104.501 15.1328 103.497 13.4128 102.195C8.07215 98.0914 4.95842 90.2803 7.62756 83.8138C8.89911 80.7305 11.6408 78.4249 14.8557 77.7148C15.4238 77.5896 16.0072 77.5146 16.5986 77.4926C16.8244 77.4845 17.0505 77.4842 17.2766 77.4838C17.6715 77.4833 18.0663 77.4827 18.4587 77.4407C19.7948 77.2996 21.1244 76.729 22.3235 76.1443C25.4911 74.5988 28.1269 72.1507 30.1131 69.2574C33.4487 64.3982 35.3746 57.6146 33.5872 51.8212C32.13 47.0932 33.6687 41.5451 36.7355 37.799C39.4827 34.4859 43.5738 32.2965 47.8555 31.8399C47.8661 31.8418 47.877 31.8411 47.8914 31.8369C48.7689 31.7486 49.6403 31.7581 50.5116 31.7676C51.383 31.7771 52.2544 31.7867 53.1319 31.6984C57.2113 31.2879 61.4075 29.7193 64.6461 27.1862C65.1109 26.8214 65.559 26.436 65.9857 26.0264C68.4943 23.6218 70.7461 19.5348 69.7503 15.9488C69.6149 15.4611 69.4347 14.9427 69.2496 14.41C68.3566 11.8405 67.3474 8.93657 70.6784 7.52927C71.9317 6.99776 73.3272 6.88095 74.6743 7.01023C74.6984 7.01187 74.7212 7.01328 74.7451 7.01623C74.7628 7.01689 74.7814 7.0189 74.7991 7.02081L74.8025 7.02118C74.8079 7.02169 74.8132 7.02206 74.8186 7.02242C74.8293 7.02315 74.84 7.02388 74.8506 7.02578C74.8642 7.02553 74.8789 7.02682 74.892 7.02919C74.9041 7.03002 74.9161 7.03084 74.928 7.03297C74.9389 7.03224 74.9495 7.03414 74.96 7.03604C74.9696 7.03507 74.9801 7.03697 74.9893 7.03863C74.999 7.03767 75.0082 7.03933 75.0174 7.04099C75.0216 7.04114 75.0258 7.04156 75.0299 7.04212C75.0351 7.04281 75.0401 7.04373 75.0452 7.04465C75.0547 7.045 75.0626 7.04642 75.0718 7.04808C75.0812 7.04843 75.0904 7.05009 75.0983 7.05151C75.1064 7.05163 75.1156 7.05329 75.1235 7.05471C75.1329 7.05506 75.1408 7.05648 75.15 7.05814C75.1594 7.05849 75.1673 7.05991 75.1765 7.06157C75.1859 7.06192 75.1951 7.06358 75.2043 7.06524C75.2138 7.06558 75.2243 7.06748 75.2335 7.06914C75.2401 7.06951 75.2467 7.07037 75.2532 7.07143C75.2573 7.07208 75.2613 7.0728 75.2653 7.07352C75.2773 7.07434 75.2878 7.07624 75.2997 7.07838C75.313 7.07943 75.3262 7.08181 75.3393 7.08418C75.354 7.08547 75.3698 7.08832 75.3842 7.09093C75.4028 7.09293 75.4199 7.09601 75.4383 7.09932L75.4383 7.09934L75.4419 7.09977C75.4632 7.10233 75.4834 7.10475 75.5045 7.10857C75.5354 7.11009 75.5648 7.11268 75.5951 7.11814C75.6218 7.12252 75.6487 7.12676 75.6755 7.131C75.7291 7.13948 75.7828 7.14796 75.8362 7.1576C77.8797 7.51017 79.8592 8.20226 81.7367 9.06843C82.3397 9.35077 82.9355 9.65078 83.5211 9.9693C85.022 10.7797 86.4601 11.7129 87.8128 12.75C89.5013 14.0321 91.09 15.5063 92.3622 17.2079C92.9002 17.9028 93.3606 18.6596 93.7223 19.4596C93.9399 19.9231 94.1027 20.412 94.2033 20.9141C94.2357 21.0202 94.2593 21.1302 94.2748 21.2401C94.4909 22.5234 94.0571 23.7993 93.0769 24.6593C91.6549 25.8096 89.7326 26.1011 87.9492 26.0367C86.3571 25.9798 84.8627 25.6748 83.3269 25.2756C78.4582 24.0078 73.1014 25.0607 69.4553 28.6859C67.1631 30.9669 65.7632 33.9945 65.3073 37.1817C64.9724 39.5281 65.289 41.7489 65.6033 43.9541Z" fill="#73DD06"/>
</svg>
